#tb 0: 1/25
#media_type 0: video
#codec_id 0: rawvideo
#dimensions 0: 720x576
#sar 0: 64/45
0,          0,          0,        1,   829440, 0x8b6b2f6d
0,          1,          1,        1,   829440, 0x70382bf0
0,          2,          2,        1,   829440, 0xbfdf1f8d
0,          3,          3,        1,   829440, 0x27587282
0,          4,          4,        1,   829440, 0x54655f5d
0,          5,          5,        1,   829440, 0xe31bff92
0,          6,          6,        1,   829440, 0x10ec4a8b
0,          7,          7,        1,   829440, 0x0a5773e7
